<?xml version="1.0" standalone="no"?>
<!DOCTYPE svg PUBLIC "-//W3C//DTD SVG 20010904//EN" "http://www.w3.org/TR/2001/REC-SVG-20010904/DTD/svg10.dtd">
<svg version="1.0" xmlns="http://www.w3.org/2000/svg" width="120.000000pt" height="120.000000pt" viewBox="0 0 120.000000 120.000000" preserveAspectRatio="xMidYMid meet">
	<g transform="translate(0.000000,120.000000) scale(0.100000,-0.100000)" fill="#ffffff" stroke="none">
		<path d="M222 1013 c-56 -49 -200 -225 -205 -253 -11 -54 7 -81 180 -267 45 -48 87 -57 116 -25 32 35 21 76 -33 135 -27 30 -50 58 -50 61 0 3 153 6 340 6 370 0 381 -1 432 -56 75 -80 59 -210 -32 -267 -28 -18 -55 -23 -141 -27 -86 -4 -111 -9 -128 -24 -27 -25 -27 -70 0 -97 20 -20 30 -21 138 -17 103 3 125 7 174 31 144 71 213 257 148 403 -28 63 -100 136 -166 166 -49 22 -59 23 -407 26 -197 2 -358 6 -358 9 0 3 23 30 50 59 38 40 50 60 50 83 0 60 -64 91 -108 54z"/>
	</g>
</svg>