<?xml version="1.0" encoding="iso-8859-1"?>
<svg version="1.1" xmlns="http://www.w3.org/2000/svg" xmlns:xlink="http://www.w3.org/1999/xlink" viewBox="0 0 454.519 454.519" xml:space="preserve">
	<g>
		<path fill="#000000" d="M207.26,141.337c0,11.028,8.972,20,20,20s20-8.972,20-20v-37.776c0-11.028-8.972-20-20-20s-20,8.972-20,20V141.337z"/>
		<path fill="#000000" d="M242.26,0v55.863c20.264,6.386,35,25.352,35,47.698v37.776c0,22.346-14.736,41.312-35,47.698v37.302h-30v-37.302
			c-20.264-6.386-35-25.352-35-47.698v-37.776c0-22.346,14.736-41.312,35-47.698V0C115.265,6.361,89.844,74.612,89.844,120.766
			v212.507c0,48.448,28.01,121.246,137.416,121.246s137.416-72.798,137.416-121.246V120.766C364.675,74.612,339.254,6.361,242.26,0z"
			/>
	</g>
</svg>
