<?xml version="1.0" encoding="iso-8859-1"?>
<svg version="1.1" xmlns="http://www.w3.org/2000/svg" xmlns:xlink="http://www.w3.org/1999/xlink" viewBox="0 0 489.9 489.9" xml:space="preserve">
	<g>
		<path fill="#ffffff" d="M423.787,14.6c-24.8-9.7-50.8-14.6-77.4-14.6c-94.8,0-176.2,62.9-210.2,152.1h-57.8c-18.8,0-34,15.2-34,34s15.2,34,34,34
			h42c-0.8,8.2-0.8,41.6,0,49.7h-42c-18.8,0-34,15.2-34,34s15.2,34,34,34h57.9c34,89.1,115.4,152.1,210.2,152.1
			c21.7,0,43.1-3.3,63.8-9.8c17.9-5.6,27.9-24.8,22.2-42.7c-5.6-17.9-24.8-27.9-42.7-22.2c-14,4.4-28.6,6.6-43.4,6.6
			c-57.1,0-107.3-33.6-135.4-84h144.2c18.8,0,34-15.2,34-34s-15.2-34-34-34h-166.3c-1-8.1-1-41.6,0-49.7h166.4c18.8,0,34-15.2,34-34
			s-15.2-34-34-34h-144.2c28.1-50.4,78.2-84,135.4-84c18.1,0,35.8,3.3,52.6,9.9c17.5,6.8,37.2-1.8,44.1-19.3
			C449.987,41.1,441.387,21.4,423.787,14.6z"/>
	</g>
</svg>