<?xml version="1.0" encoding="iso-8859-1"?>
<svg version="1.1" xmlns="http://www.w3.org/2000/svg" xmlns:xlink="http://www.w3.org/1999/xlink" viewBox="0 0 26 26" xml:space="preserve">
	<g fill="#ffffff" style="opacity: .7;">
		<circle cx="21.732" cy="5.5" r="1.5"/>
		<circle cx="17.732" cy="2.5" r="1.5"/>
		<circle cx="13.732" cy="1.5" r="1.5"/>
		<circle cx="9.732" cy="3.5" r="1.5"/>
		<path d="M20.232,5.5V12c0,0.276-0.224,0.5-0.5,0.5s-0.5-0.224-0.5-0.5V2.5h-3V11c0,0.276-0.224,0.5-0.5,0.5
			c-0.276,0-0.5-0.224-0.5-0.5V1.5h-3V11c0,0.276-0.224,0.5-0.5,0.5s-0.5-0.224-0.5-0.5V3.5h-3V16l-2.025-2.771
			c-0.6-0.925-1.771-1.235-2.629-0.705c-0.855,0.542-1.067,1.724-0.475,2.646c0,0,3.266,4.943,4.658,7.059S11.408,26,15.625,26
			c6.982,0,7.607-5.392,7.607-7s0-13.5,0-13.5H20.232z"/>
	</g>
</svg>
