<svg width="32" height="32" xmlns="http://www.w3.org/2000/svg">
 <title>idioma</title>

 <g>
  <title>background</title>
  <rect fill="none" id="canvas_background" height="402" width="582" y="-1" x="-1"/>
 </g>
 <g>
  <title>Layer 1</title>
  <path fill="#ffffff" id="svg_1" d="m15,2c-8.284,0 -15,6.716 -15,15s6.716,15 15,15c8.284,0 15,-6.716 15,-15s-6.716,-15 -15,-15zm8.487,20c0.268,-1.264 0.437,-2.606 0.492,-4l3.983,0c-0.104,1.381 -0.426,2.722 -0.959,4l-3.516,0zm-16.974,-10c-0.268,1.264 -0.437,2.606 -0.492,4l-3.983,0c0.104,-1.381 0.426,-2.722 0.959,-4l3.516,0zm14.926,0c0.3,1.28 0.481,2.62 0.54,4l-5.979,0l0,-4l5.439,0zm-5.439,-2l0,-5.854c0.456,0.133 0.908,0.355 1.351,0.668c0.831,0.586 1.625,1.488 2.298,2.609c0.465,0.775 0.867,1.638 1.203,2.578l-4.852,0l0,-0.001zm-5.649,-2.578c0.673,-1.121 1.467,-2.023 2.298,-2.609c0.443,-0.313 0.895,-0.535 1.351,-0.668l0,5.854l-4.852,0c0.336,-0.94 0.738,-1.803 1.203,-2.578l0,0.001zm3.649,4.578l0,4l-5.979,0c0.059,-1.38 0.24,-2.72 0.54,-4l5.439,0zm-11.003,10c-0.533,-1.278 -0.854,-2.619 -0.959,-4l3.983,0c0.055,1.394 0.224,2.736 0.492,4l-3.516,0zm5.024,-4l5.979,0l0,4l-5.439,0c-0.3,-1.28 -0.481,-2.62 -0.54,-4zm5.979,6l0,5.854c-0.456,-0.133 -0.908,-0.355 -1.351,-0.668c-0.831,-0.586 -1.625,-1.488 -2.298,-2.609c-0.465,-0.775 -0.867,-1.638 -1.203,-2.578l4.852,0l0,0.001zm5.649,2.578c-0.673,1.121 -1.467,2.023 -2.298,2.609c-0.443,0.312 -0.895,0.535 -1.351,0.668l0,-5.854l4.852,0c-0.336,0.94 -0.738,1.802 -1.203,2.578l0,-0.001zm-3.649,-4.578l0,-4l5.979,0c-0.059,1.38 -0.24,2.72 -0.54,4l-5.439,0zm7.98,-6c-0.055,-1.394 -0.224,-2.736 -0.492,-4l3.516,0c0.533,1.278 0.855,2.619 0.959,4l-3.983,0zm1.978,-6l-2.997,0c-0.582,-1.836 -1.387,-3.447 -2.354,-4.732c1.329,0.636 2.533,1.488 3.585,2.54c0.671,0.671 1.261,1.404 1.766,2.192zm-20.15,-2.192c1.052,-1.052 2.256,-1.904 3.585,-2.54c-0.967,1.285 -1.771,2.896 -2.354,4.732l-2.997,0c0.504,-0.788 1.094,-1.521 1.766,-2.192zm-1.766,16.192l2.997,0c0.583,1.836 1.387,3.447 2.354,4.732c-1.329,-0.636 -2.533,-1.488 -3.585,-2.54c-0.671,-0.671 -1.261,-1.404 -1.766,-2.192zm20.15,2.192c-1.052,1.052 -2.256,1.904 -3.585,2.54c0.967,-1.285 1.771,-2.896 2.354,-4.732l2.997,0c-0.504,0.788 -1.094,1.521 -1.766,2.192z"/>
 </g>
</svg>