<?xml version="1.0" standalone="no"?>
<!DOCTYPE svg PUBLIC "-//W3C//DTD SVG 20010904//EN"
 "http://www.w3.org/TR/2001/REC-SVG-20010904/DTD/svg10.dtd">
<svg version="1.0" xmlns="http://www.w3.org/2000/svg"
 width="933.000000pt" height="948.000000pt" viewBox="0 0 933.000000 948.000000"
 preserveAspectRatio="xMidYMid meet">
<metadata>
Created by potrace 1.13, written by Peter Selinger 2001-2015
</metadata>
<g transform="translate(0.000000,948.000000) scale(0.100000,-0.100000)"
fill="#fff" stroke="none">
<path d="M150 9345 c74 -74 136 -135 137 -135 2 0 3 61 3 135 l0 135 -137 0
-138 0 135 -135z"/>
<path d="M590 9192 l0 -287 145 -145 145 -145 0 433 0 432 -145 0 -145 0 0
-288z"/>
<path d="M1180 8897 l0 -582 145 -145 145 -145 0 728 0 727 -145 0 -145 0 0
-583z"/>
<path d="M1770 8602 l0 -877 140 -140 140 -140 0 1018 0 1017 -140 0 -140 0 0
-878z"/>
<path d="M3 8245 c4 -1049 1 -1001 70 -1183 39 -106 109 -225 172 -297 l44
-50 1 1095 0 1095 -145 145 -146 145 4 -950z"/>
<path d="M590 7549 l0 -1057 72 -27 c69 -25 179 -55 206 -55 9 0 12 197 12
953 l0 952 -145 145 -145 145 0 -1056z"/>
<path d="M1180 7212 c0 -635 3 -802 13 -802 26 0 136 30 205 55 l72 27 0 617
0 616 -145 145 -145 145 0 -803z"/>
<path d="M1770 7070 l1 -355 35 40 c81 93 163 239 200 358 l18 58 -127 127
-127 127 0 -355z"/>
<path d="M988 5120 c-201 -24 -362 -131 -441 -292 -63 -128 -72 -179 -72 -398
0 -174 2 -204 23 -275 76 -262 248 -393 542 -412 111 -7 233 14 317 53 69 33
164 105 203 153 l30 39 0 205 c0 201 0 206 -22 221 -19 13 -59 16 -240 16
-205 0 -219 -1 -238 -20 -27 -27 -26 -65 2 -84 18 -13 56 -16 200 -16 l178 0
0 -146 0 -147 -36 -34 c-96 -90 -223 -129 -388 -120 -267 15 -399 145 -437
432 -14 106 -6 273 16 360 49 190 161 302 340 340 174 37 321 -2 439 -115 66
-63 100 -75 130 -44 26 25 19 63 -19 110 -105 127 -321 199 -527 174z"/>
<path d="M2276 5120 c-319 -38 -497 -250 -522 -619 -8 -120 9 -272 43 -371 63
-191 192 -313 384 -366 88 -25 299 -25 388 -1 225 61 361 213 412 462 18 84
20 124 16 245 -6 163 -26 260 -76 358 -41 82 -136 181 -210 221 -112 59 -289
88 -435 71z m285 -140 c203 -69 301 -243 301 -540 1 -224 -42 -360 -145 -457
-91 -86 -192 -123 -339 -123 -151 0 -258 39 -344 124 -107 108 -150 257 -141
490 4 115 10 156 31 223 54 167 171 273 337 302 81 15 227 5 300 -19z"/>
<path d="M3107 5092 c-10 -10 -17 -30 -17 -44 0 -14 106 -302 236 -639 263
-684 268 -695 333 -641 23 18 501 1247 501 1287 0 52 -86 77 -114 33 -8 -13
-103 -255 -211 -538 -108 -283 -200 -521 -205 -529 -4 -7 -10 -10 -13 -5 -2 5
-93 240 -201 522 -202 530 -211 552 -230 564 -20 14 -63 8 -79 -10z"/>
<path d="M6417 5092 c-15 -17 -17 -77 -17 -660 l0 -641 26 -20 c33 -26 45 -26
75 -2 l24 19 5 519 5 520 358 -533 c276 -409 364 -534 383 -538 29 -8 59 7 74
34 6 12 10 239 10 649 0 618 0 631 -20 651 -27 27 -75 26 -94 -2 -14 -20 -16
-88 -16 -537 0 -441 -2 -513 -14 -501 -8 8 -170 247 -361 530 -191 283 -352
518 -359 522 -20 14 -63 8 -79 -10z"/>
<path d="M4346 5079 l-26 -20 0 -625 c0 -611 0 -624 20 -644 19 -19 33 -20
378 -20 335 0 360 1 375 18 23 25 21 58 -3 82 -19 19 -33 20 -330 20 l-310 0
0 245 0 245 234 0 235 0 20 26 c27 34 26 40 -4 69 l-24 25 -231 0 -230 0 0
240 0 240 300 0 c287 0 301 1 320 20 11 11 20 29 20 40 0 11 -9 29 -20 40 -19
19 -33 20 -359 20 -327 0 -339 -1 -365 -21z"/>
<path d="M5367 5080 l-27 -21 0 -630 0 -630 25 -24 c29 -30 45 -31 79 -4 l26
20 0 280 0 279 104 0 103 0 209 -287 c116 -159 221 -294 236 -302 25 -14 29
-14 55 5 54 40 49 51 -157 322 -104 138 -190 253 -190 255 0 2 22 7 50 10 115
14 237 111 281 225 32 81 31 204 -1 287 -32 82 -122 173 -205 206 -56 22 -75
24 -310 27 -244 3 -251 3 -278 -18z m569 -135 c71 -44 107 -108 112 -197 5
-88 -11 -146 -55 -198 -67 -78 -91 -84 -320 -88 l-203 -4 0 262 0 261 208 -3
209 -3 49 -30z"/>
<path d="M4864 3236 c-112 -27 -205 -100 -246 -190 -34 -77 -32 -192 5 -268
52 -107 133 -158 379 -239 236 -78 313 -129 339 -224 17 -63 5 -149 -28 -203
-23 -37 -43 -54 -97 -82 -68 -35 -70 -35 -200 -35 -179 0 -220 16 -333 131
-45 46 -88 84 -95 84 -8 0 -24 -7 -36 -16 -68 -47 38 -195 192 -268 93 -44
177 -59 301 -53 284 13 435 144 435 378 0 97 -30 171 -95 235 -62 60 -152 106
-335 169 -218 76 -280 115 -314 197 -26 62 -17 129 26 191 45 64 193 105 315
87 89 -12 162 -49 237 -119 36 -34 73 -61 81 -61 9 0 27 11 41 25 19 19 23 31
18 48 -25 82 -154 176 -289 212 -71 18 -228 19 -301 1z"/>
<path d="M1710 3218 c-20 -21 -20 -32 -20 -650 0 -615 0 -628 20 -648 19 -19
33 -20 359 -20 340 0 340 0 355 22 22 31 20 51 -7 76 -23 22 -29 22 -310 22
l-287 0 0 594 0 595 -22 15 c-31 22 -64 20 -88 -6z"/>
<path d="M2661 3214 c-21 -26 -21 -35 -21 -650 0 -611 0 -624 20 -644 19 -19
33 -20 359 -20 340 0 340 0 355 22 21 30 20 54 -4 78 -19 19 -33 20 -310 20
l-290 0 0 593 c0 563 -1 595 -18 610 -28 25 -67 21 -91 -9z"/>
<path d="M627 3212 c-22 -24 -21 -65 1 -85 16 -14 43 -17 170 -17 l152 0 0
-545 0 -545 -155 0 c-142 0 -157 -2 -175 -20 -25 -25 -26 -62 -2 -83 17 -15
59 -17 401 -17 244 0 389 4 402 10 13 7 19 21 19 45 0 58 -22 65 -192 65
l-148 0 0 545 0 545 153 0 c171 0 197 8 197 59 0 61 2 61 -422 61 -360 0 -386
-1 -401 -18z"/>
<path d="M3632 3220 c-12 -5 -27 -21 -32 -35 -6 -16 -10 -256 -10 -626 0 -601
2 -630 34 -651 6 -4 174 -8 373 -8 l363 0 17 26 c15 24 15 29 2 53 l-15 26
-317 3 -317 2 0 250 0 250 234 0 c231 0 235 0 250 22 22 30 20 51 -5 74 -19
17 -41 19 -250 22 l-229 3 0 240 0 239 299 0 c332 0 335 1 329 64 -5 54 -19
56 -378 55 -179 0 -335 -4 -348 -9z"/>
<path d="M7350 1366 c-112 -24 -199 -82 -243 -164 -75 -137 -47 -304 66 -395
61 -50 123 -79 307 -142 179 -62 222 -81 269 -121 50 -42 71 -93 71 -171 -1
-111 -44 -179 -142 -223 -66 -29 -183 -42 -271 -30 -123 17 -203 68 -299 188
-34 42 -108 18 -108 -35 0 -31 58 -111 112 -153 105 -83 219 -120 373 -120
299 1 467 135 468 377 0 73 -4 90 -32 147 -56 114 -144 171 -398 259 -165 57
-241 96 -281 142 -39 43 -46 69 -40 145 5 73 40 122 114 160 44 23 60 25 169
25 109 0 125 -2 177 -27 31 -14 86 -54 122 -87 70 -65 94 -73 126 -41 27 27
25 50 -9 96 -82 115 -241 185 -416 183 -44 0 -105 -6 -135 -13z"/>
<path d="M2113 1347 c-10 -13 -130 -304 -267 -645 -271 -674 -268 -664 -204
-686 56 -20 68 -3 154 208 l79 196 283 -3 284 -2 74 -184 c40 -101 81 -192 91
-203 24 -27 71 -20 97 15 l20 28 -253 632 c-149 371 -261 639 -273 650 -28 24
-63 21 -85 -6z m168 -505 l116 -297 -235 -3 c-129 -1 -237 -1 -239 1 -2 3 145
387 224 585 3 6 8 12 12 12 3 0 58 -134 122 -298z"/>
<path d="M2895 1345 l-25 -24 0 -624 c0 -600 1 -626 19 -648 l19 -24 337 0
337 0 19 24 c25 31 24 47 -6 76 l-24 25 -286 0 -285 0 0 590 c0 577 0 590 -20
610 -27 27 -56 25 -85 -5z"/>
<path d="M5212 1353 c-20 -17 -522 -1255 -522 -1286 0 -22 44 -57 72 -57 14 0
32 7 39 16 8 9 48 100 90 203 l76 186 284 3 284 2 74 -190 c40 -104 81 -196
91 -205 36 -32 110 -4 110 43 0 35 -499 1267 -521 1285 -12 9 -29 17 -39 17
-10 0 -27 -8 -38 -17z m161 -510 c64 -163 115 -298 113 -300 -1 -2 -109 -2
-238 -1 l-236 3 116 298 c64 163 118 297 122 297 3 0 59 -134 123 -297z"/>
<path d="M647 1332 c-16 -17 -17 -66 -17 -643 0 -343 4 -629 8 -635 19 -29 55
-34 254 -34 252 1 334 11 415 50 133 66 200 189 191 353 -8 140 -61 223 -179
281 l-69 33 41 18 c98 44 157 160 146 286 -11 133 -83 232 -203 280 -56 22
-74 24 -314 27 -241 3 -257 2 -273 -16z m504 -111 c101 -31 153 -105 153 -216
0 -117 -52 -186 -167 -220 -36 -11 -98 -15 -214 -15 l-163 0 0 236 0 236 178
-5 c97 -3 193 -10 213 -16z m50 -577 c75 -22 141 -90 159 -164 24 -102 -2
-211 -67 -272 -58 -55 -89 -62 -320 -66 l-213 -4 0 261 0 261 193 0 c148 0
206 -4 248 -16z"/>
<path d="M3797 1332 c-15 -17 -17 -76 -17 -644 0 -622 0 -625 21 -644 20 -18
43 -19 368 -22 340 -3 348 -2 374 18 31 25 35 60 9 83 -16 15 -54 17 -330 17
l-312 0 0 244 0 245 236 3 c220 3 237 4 250 22 19 27 18 60 -4 79 -16 15 -49
17 -250 17 l-232 0 0 245 0 245 307 2 307 3 15 26 c13 24 13 29 -2 53 l-17 26
-354 0 c-329 0 -354 -1 -369 -18z"/>
<path d="M6031 1331 c-21 -21 -21 -28 -21 -651 0 -617 0 -630 20 -650 11 -11
31 -20 45 -20 14 0 34 9 45 20 19 19 20 33 20 295 l0 276 107 -3 107 -3 207
-284 c114 -156 213 -287 221 -292 38 -24 98 8 98 54 0 13 -75 120 -190 272
l-191 250 63 15 c161 41 257 140 288 297 17 85 6 159 -36 243 -40 79 -92 130
-174 169 -54 26 -57 26 -322 29 -258 3 -267 3 -287 -17z m547 -115 c54 -23
116 -93 132 -150 7 -25 11 -76 8 -114 -5 -89 -41 -153 -112 -197 l-49 -30
-209 -3 -208 -3 0 261 0 262 198 -4 c160 -4 205 -8 240 -22z"/>
<path d="M8103 1295 c-26 -18 -34 -46 -19 -72 17 -33 1173 -1173 1188 -1173 7
0 24 7 36 16 54 38 61 30 -566 657 -323 323 -594 587 -602 587 -9 0 -25 -7
-37 -15z"/>
</g>
</svg>
