<?xml version="1.0" standalone="no"?>
<!DOCTYPE svg PUBLIC "-//W3C//DTD SVG 20010904//EN" "http://www.w3.org/TR/2001/REC-SVG-20010904/DTD/svg10.dtd">
<svg version="1.0" xmlns="http://www.w3.org/2000/svg" width="131.000000pt" height="131.000000pt" viewBox="0 0 131.000000 131.000000" preserveAspectRatio="xMidYMid meet">
<g transform="translate(0.000000,131.000000) scale(0.100000,-0.100000)" fill="#000000" stroke="none">
<path d="M885 1200 c-72 -29 -93 -124 -41 -179 93 -97 242 11 181 129 -25 49 -89 72 -140 50z"/>
<path d="M420 1073 c-47 -42 -88 -81 -92 -87 -15 -22 -8 -66 14 -86 33 -31 61 -24 119 27 94 82 82 77 128 51 23 -13 41 -27 41 -33 0 -5 -35 -48 -76 -95 -64 -72 -84 -88 -133 -105 -65 -24 -121 -60 -121 -79 0 -6 18 -29 39 -50 l40 -39 25 20 c75 60 196 51 272 -19 78 -72 94 -171 44 -270 l-22 -46 38 -36 c21 -20 41 -36 44 -36 14 0 50 48 70 92 30 67 36 152 16 220 -9 31 -16 59 -16 62 0 3 18 6 41 6 l40 0 -5 -43 c-3 -23 -8 -90 -12 -149 -5 -99 -4 -108 15 -127 26 -26 61 -27 91 -3 19 16 24 34 36 157 20 206 18 268 -6 290 -17 15 -34 17 -145 13 -69 -3 -125 -2 -125 2 0 4 29 40 65 80 113 127 110 135 -115 264 -105 60 -179 96 -197 96 -22 0 -49 -18 -113 -77z"/>
<path d="M236 598 c-36 -56 -50 -105 -50 -183 -1 -71 3 -88 32 -147 77 -156 244 -230 410 -179 38 11 80 30 93 40 l24 20 -42 42 -41 42 -41 -17 c-97 -38 -206 -9 -268 72 -48 63 -53 127 -18 238 5 15 -3 29 -32 57 -20 20 -41 37 -45 37 -4 0 -14 -10 -22 -22z"/>
</g>
</svg>
