<?xml version="1.0" standalone="no"?>
<!DOCTYPE svg PUBLIC "-//W3C//DTD SVG 20010904//EN"
 "http://www.w3.org/TR/2001/REC-SVG-20010904/DTD/svg10.dtd">
<svg version="1.0" xmlns="http://www.w3.org/2000/svg"
 width="205.000000pt" height="1319.000000pt" viewBox="0 0 205.000000 1319.000000"
 preserveAspectRatio="xMidYMid meet">
<metadata>
Created by potrace 1.13, written by Peter Selinger 2001-2015
</metadata>
<g transform="translate(0.000000,1319.000000) scale(0.100000,-0.100000)"
fill="#000000" stroke="none">
<path fill="#ee013b" d="M150 13055 c74 -74 136 -135 137 -135 2 0 3 61 3 135 l0 135 -137 0
-138 0 135 -135z"/>
<path fill="#ee013b" d="M590 12902 l0 -287 145 -145 145 -145 0 433 0 432 -145 0 -145 0 0
-288z"/>
<path fill="#ee013b" d="M1180 12607 l0 -582 140 -140 140 -140 0 723 0 722 -140 0 -140 0 0
-583z"/>
<path fill="#ee013b" d="M1760 12317 l0 -872 145 -145 145 -145 0 1018 0 1017 -145 0 -145 0
0 -873z"/>
<path fill="#ee013b" d="M2 11945 l3 -960 28 -100 c43 -160 148 -357 231 -434 l26 -24 0 1094
0 1094 -145 145 -146 145 3 -960z"/>
<path fill="#ee013b" d="M590 11258 l0 -1056 66 -26 c66 -27 173 -56 207 -56 16 0 17 52 17
953 l0 952 -145 145 -145 145 0 -1057z"/>
<path fill="#ee013b" d="M1180 10921 l0 -804 43 7 c23 4 85 21 137 39 l95 32 3 625 2 625
-140 140 -140 140 0 -804z"/>
<path fill="#ee013b" d="M1760 10780 l1 -365 35 40 c86 98 177 260 210 374 l16 54 -131 131
-131 131 0 -365z"/>
<path d="M945 8829 c-224 -37 -391 -192 -449 -416 -42 -160 -42 -375 0 -536
54 -213 203 -359 409 -402 91 -19 262 -19 344 0 95 23 196 80 274 156 l67 66
0 205 c0 186 -2 206 -18 221 -16 15 -48 17 -244 17 -205 0 -226 -2 -241 -18
-18 -20 -22 -49 -9 -69 16 -25 69 -33 223 -33 l159 0 0 -149 0 -149 -35 -30
c-136 -120 -368 -153 -561 -81 -110 42 -200 153 -240 300 -26 92 -26 367 -1
459 52 188 149 292 312 335 85 22 218 20 298 -5 70 -22 171 -89 200 -133 37
-56 117 -39 117 25 0 26 -12 44 -63 94 -130 126 -329 179 -542 143z"/>
<path d="M892 6960 c-249 -45 -411 -199 -469 -447 -25 -110 -25 -378 1 -478
58 -222 188 -363 389 -423 104 -30 284 -34 391 -8 222 54 369 209 423 446 26
113 23 369 -5 473 -61 226 -197 369 -402 422 -77 20 -254 28 -328 15z m260
-121 c238 -50 358 -239 358 -564 0 -195 -42 -338 -129 -436 -98 -112 -298
-164 -482 -125 -181 39 -288 147 -340 343 -29 110 -29 326 0 435 49 189 149
297 311 340 75 20 206 23 282 7z"/>
<path d="M621 5053 c-14 -17 -19 -34 -15 -47 12 -42 30 -46 191 -46 l153 0 0
-545 0 -545 -147 0 c-178 0 -198 -7 -198 -65 0 -66 -1 -65 428 -63 362 3 379
4 393 22 18 25 18 57 0 82 -13 17 -30 19 -175 22 l-161 3 0 545 0 544 163 0
c146 0 166 2 180 18 23 25 21 58 -3 82 -19 19 -33 20 -404 20 l-385 0 -20 -27z"/>
<path d="M662 3190 c-12 -5 -27 -21 -32 -35 -6 -16 -10 -257 -10 -629 0 -600
0 -603 21 -630 l22 -27 281 3 281 3 65 31 c90 42 134 84 172 162 31 62 33 73
33 172 0 86 -4 113 -21 151 -33 70 -79 116 -156 153 l-70 34 37 18 c52 24 103
78 129 133 16 36 21 64 20 131 -1 161 -71 258 -224 311 -58 20 -88 22 -295 26
-136 2 -239 -1 -253 -7z m473 -125 c115 -30 164 -96 165 -218 0 -37 -6 -82
-13 -100 -18 -43 -86 -103 -134 -118 -21 -6 -120 -14 -220 -16 l-183 -5 0 236
0 236 163 0 c114 0 180 -5 222 -15z m59 -576 c128 -35 197 -165 167 -312 -17
-78 -59 -133 -129 -165 -54 -24 -67 -26 -269 -30 l-213 -5 0 262 0 261 203 0
c114 0 219 -5 241 -11z"/>
<path fill="#ee013b" d="M987 672 c-428 -428 -587 -593 -587 -610 0 -26 33 -62 58 -62 9 0
275 258 605 588 619 619 615 614 569 655 -10 10 -27 17 -38 17 -12 0 -237
-218 -607 -588z"/>
</g>
</svg>
