<?xml version="1.0" encoding="iso-8859-1"?>
<!DOCTYPE svg PUBLIC "-//W3C//DTD SVG 1.1//EN" "http://www.w3.org/Graphics/SVG/1.1/DTD/svg11.dtd">
<svg version="1.1" xmlns="http://www.w3.org/2000/svg" xmlns:xlink="http://www.w3.org/1999/xlink" viewBox="0 0 247.768 247.768" xml:space="preserve">
	<g>
		<path fill="#ffffff" d="M230.268,53.519h-27.6V26.808c0-6.893-5.607-12.5-12.5-12.5H57.6c-6.893,0-12.5,5.607-12.5,12.5
		v26.711H17.5c-9.649,0-17.5,7.851-17.5,17.5V215.96c0,9.649,7.851,17.5,17.5,17.5h212.768c9.649,0,17.5-7.851,17.5-17.5V71.019
		C247.768,61.369,239.917,53.519,230.268,53.519z M60.1,29.308h127.569v24.211H60.1V29.308z M17.5,68.519h212.768
		c1.355,0,2.5,1.145,2.5,2.5v44.979h-75.821v-6.72c0-6.893-5.607-12.5-12.5-12.5h-41.126c-6.893,0-12.5,5.607-12.5,12.5v6.72H15
		V71.019C15,69.663,16.145,68.519,17.5,68.519z M141.947,111.779v24.211h-36.126v-24.211H141.947z M230.268,218.46H17.5
		c-1.355,0-2.5-1.144-2.5-2.5v-84.962h75.821v7.491c0,6.893,5.607,12.5,12.5,12.5h41.126c6.893,0,12.5-5.607,12.5-12.5v-7.491h75.821
		v84.962C232.768,217.316,231.623,218.46,230.268,218.46z" />
	</g>
</svg>
