<?xml version='1.0' encoding='utf-8'?>
<!DOCTYPE svg PUBLIC '-//W3C//DTD SVG 1.1//EN' 'http://www.w3.org/Graphics/SVG/1.1/DTD/svg11.dtd'>
<svg version="1.1" xmlns="http://www.w3.org/2000/svg" viewBox="0 0 512 512" xmlns:xlink="http://www.w3.org/1999/xlink" enable-background="new 0 0 512 512">
	<g>
		<path fill="#4dba79" d="m495,211.9l-194.9-194.9c-8-8-20.9-8-28.9,0l-115.4,115.4c-10.8,11.3-4.4,25.3 0,28.9l19.3,19.3-147.7,118c-6.1,4.9-8.9,12.9-7.1,20.5 0.1,0.5 12.2,55.4-8.8,156.5-1.5,7.1 0.9,14.2 6,19 3.8,4 10.8,7.6 18.9,5.9 100.1-20.6 156.1-8.9 156.5-8.8 7.6,1.7 15.6-1 20.5-7.2l118.1-147.7 19.3,19.3c11.3,10.7 24.8,4.7 28.9,0l115.3-115.4c3.8-3.8 11.2-16.2 0-28.8zm-306.1,237.9c-17.2-2.2-51-4.5-99.5,0.9l74.4-74.4c8-8 8-20.9 0-28.9-8-8-20.9-8-28.9,0l-73.5,73.5c5.2-47.7 2.9-80.8 0.7-97.8l142-113.5 98.2,98.2-113.4,142zm176.2-136.9l-166-166 86.6-86.6 166,166-86.6,86.6z"/>
	</g>
</svg>
