<?xml version="1.0" encoding="iso-8859-1"?>
<svg version="1.1" id="Capa_1" xmlns="http://www.w3.org/2000/svg" xmlns:xlink="http://www.w3.org/1999/xlink" x="0px" y="0px" viewBox="0 0 512 512" xml:space="preserve">
	<g>
		<path fill="#ffffff" d="M316,30h-28.154l-3.545-9.99C280.053,8.042,268.686,0,256,0c-12.686,0-24.053,8.042-28.301,20.01L224.154,30H196
			c-16.569,0-30,13.431-30,30v15c0,8.284,6.716,15,15,15h150c8.284,0,15-6.716,15-15V60C346,43.431,332.569,30,316,30z"/>
		<path fill="#ffffff" d="M406,60h-30v15c0,24.814-20.186,45-45,45H181c-24.814,0-45-20.186-45-45V60h-30c-24.814,0-45,20.186-45,45v360
			c0,24.814,20.186,47,45,47h300c24.814,0,45-22.186,45-47V105C451,80.186,430.814,60,406,60z M236.605,385.605l-60,60
			c-2.93,2.93-6.768,4.395-10.605,4.395s-7.676-1.465-10.605-4.395l-30-30c-5.859-5.859-5.859-15.352,0-21.211
			s15.352-5.859,21.211,0L166,413.789l49.395-49.395c5.859-5.859,15.352-5.859,21.211,0S242.465,379.746,236.605,385.605z
			 M236.605,280.605l-60,60c-2.93,2.93-6.768,4.395-10.605,4.395s-7.676-1.465-10.605-4.395l-30-30
			c-5.859-5.859-5.859-15.352,0-21.211s15.352-5.859,21.211,0L166,308.789l49.395-49.395c5.859-5.859,15.352-5.859,21.211,0
			C242.465,265.253,242.465,274.746,236.605,280.605z M236.605,175.605l-60,60c-2.93,2.93-6.768,4.395-10.605,4.395
			s-7.676-1.465-10.605-4.395l-30-30c-5.859-5.859-5.859-15.352,0-21.211s15.352-5.859,21.211,0L166,203.789l49.395-49.395
			c5.859-5.859,15.352-5.859,21.211,0S242.465,169.746,236.605,175.605z M376,420h-90c-8.291,0-15-6.709-15-15
			c0-8.291,6.709-15,15-15h90c8.291,0,15,6.709,15,15C391,413.291,384.291,420,376,420z M376,315h-90c-8.291,0-15-6.709-15-15
			c0-8.291,6.709-15,15-15h90c8.291,0,15,6.709,15,15C391,308.291,384.291,315,376,315z M376,210h-90c-8.291,0-15-6.709-15-15
			s6.709-15,15-15h90c8.291,0,15,6.709,15,15S384.291,210,376,210z"/>
	</g>
</svg>
