<?xml version="1.0" encoding="iso-8859-1"?>
<svg version="1.1" id="Capa_1" xmlns="http://www.w3.org/2000/svg" xmlns:xlink="http://www.w3.org/1999/xlink" x="0px" y="0px" viewBox="0 0 512 512" xml:space="preserve">
	<g>
		<path fill="#ffffff" d="M406,60h-47.58c-6.192-17.459-22.865-30-42.42-30h-17.57C292.239,12.539,275.557,0,256,0s-36.239,12.539-42.43,30H196
			c-19.555,0-36.228,12.541-42.42,30H106c-24.813,0-45,20.187-45,45v362c0,24.813,20.187,45,45,45h300c24.813,0,45-20.187,45-45V105
			C451,80.187,430.813,60,406,60z M181,75c0-8.271,6.729-15,15-15h30c8.284,0,15-6.716,15-15c0-8.271,6.729-15,15-15s15,6.729,15,15
			c0,8.284,6.716,15,15,15h30c8.271,0,15,6.729,15,15v15H181V75z M421,467c0,8.271-6.729,15-15,15H106c-8.271,0-15-6.729-15-15V105
			c0-8.271,6.729-15,15-15h45v15c0,8.284,6.716,15,15,15h180c8.284,0,15-6.716,15-15V90h45c8.271,0,15,6.729,15,15V467z"/>
		<path fill="#ffffff" d="M236.606,261.394c-5.857-5.858-15.355-5.858-21.213,0L166,310.787l-19.394-19.394c-5.857-5.858-15.355-5.858-21.213,0
			c-5.858,5.858-5.858,15.355,0,21.213l30.001,30.001C158.322,345.536,162.161,347,166,347s7.678-1.464,10.606-4.393l60-60
			C242.464,276.749,242.464,267.252,236.606,261.394z"/>
		<path fill="#ffffff" d="M236.606,156.394c-5.857-5.858-15.355-5.858-21.213,0L166,205.787l-19.394-19.394c-5.857-5.858-15.355-5.858-21.213,0
			c-5.858,5.858-5.858,15.355,0,21.213l30.001,30.001C158.322,240.536,162.161,242,166,242s7.678-1.464,10.606-4.393l60-60
			C242.464,171.749,242.464,162.252,236.606,156.394z"/>
		<path fill="#ffffff" d="M236.606,366.393c-5.857-5.858-15.355-5.858-21.213,0L166,415.787l-19.394-19.393c-5.857-5.858-15.355-5.858-21.213,0
			c-5.858,5.858-5.858,15.355,0,21.213l30.001,29.999c2.928,2.93,6.767,4.394,10.606,4.394s7.678-1.464,10.606-4.394l60-60
			C242.464,381.748,242.464,372.251,236.606,366.393z"/>
		<path fill="#ffffff" d="M376,182h-90c-8.284,0-15,6.716-15,15s6.716,15,15,15h90c8.284,0,15-6.716,15-15S384.284,182,376,182z"/>
		<path fill="#ffffff" d="M376,392h-90c-8.284,0-15,6.716-15,15s6.716,15,15,15h90c8.284,0,15-6.716,15-15S384.284,392,376,392z"/>
		<path fill="#ffffff" d="M376,287h-90c-8.284,0-15,6.716-15,15s6.716,15,15,15h90c8.284,0,15-6.716,15-15S384.284,287,376,287z"/>
	</g>
</svg>
