<?xml version="1.0" standalone="no"?>
<!DOCTYPE svg PUBLIC "-//W3C//DTD SVG 20010904//EN" "http://www.w3.org/TR/2001/REC-SVG-20010904/DTD/svg10.dtd">
<svg version="1.0" xmlns="http://www.w3.org/2000/svg" width="131.000000pt" height="131.000000pt" viewBox="0 0 131.000000 131.000000" preserveAspectRatio="xMidYMid meet">
<g transform="translate(0.000000,131.000000) scale(0.100000,-0.100000)" fill="#000000" stroke="none">
<path d="M430 1196 c-71 -20 -111 -45 -175 -110 -114 -115 -150 -252 -106 -409 44 -158 173 -270 345 -300 52 -9 75 -8 136 7 41 10 82 23 91 29 14 8 23 3 50 -29 90 -104 233 -255 249 -264 54 -29 132 0 150 56 24 71 13 87 -239 356 -26 28 -32 40 -23 50 31 38 52 125 52 216 0 85 -3 100 -34 166 -18 40 -50 92 -71 115 -46 50 -133 103 -197 119 -59 15 -170 14 -228 -2z m239 -161 c62 -31 113 -91 134 -156 22 -67 21 -107 -3 -176 -80 -229 -396 -240 -501 -18 -23 50 -25 157 -4 209 22 51 92 125 140 147 62 28 172 26 234 -6z"/>
</g>
</svg>
