<?xml version="1.0" standalone="no"?>
<!DOCTYPE svg PUBLIC "-//W3C//DTD SVG 20010904//EN" "http://www.w3.org/TR/2001/REC-SVG-20010904/DTD/svg10.dtd">
<svg version="1.0" xmlns="http://www.w3.org/2000/svg" width="599.000000pt" height="565.000000pt" viewBox="0 0 599.000000 565.000000" preserveAspectRatio="xMidYMid meet">
<g transform="translate(0.000000,565.000000) scale(0.100000,-0.100000)" fill="#ffffff" stroke="none">
<path d="M2770 5414 c-528 -50 -996 -226 -1400 -527 -203 -152 -451 -405 -583
-597 -73 -107 -181 -281 -175 -284 2 -1 40 -16 85 -33 l82 -30 61 101 c34 56
71 115 83 131 65 88 88 118 166 208 406 472 1004 783 1630 846 133 14 385 14
509 0 213 -23 452 -81 652 -159 102 -39 333 -153 377 -186 17 -13 34 -24 38
-24 8 0 116 -73 170 -114 278 -213 482 -443 669 -752 l37 -61 75 32 c41 18 77
35 80 37 7 7 -57 118 -128 223 -79 117 -87 127 -189 248 -416 493 -1009 822
-1649 917 -140 21 -476 34 -590 24z"/>
<path d="M2805 4716 c-247 -57 -445 -221 -540 -446 -96 -227 -67 -501 73 -707
264 -388 831 -436 1152 -96 74 77 114 137 151 225 120 280 51 614 -169 826
-82 79 -173 134 -288 173 -74 26 -108 32 -204 35 -75 2 -136 -1 -175 -10z
m327 -194 c180 -60 321 -211 368 -397 32 -127 21 -273 -30 -375 -43 -87 -56
-104 -114 -163 -116 -115 -243 -168 -401 -168 -208 0 -396 111 -499 295 -91
162 -88 379 8 549 73 131 217 240 359 273 81 18 233 11 309 -14z"/>
<path d="M401 3839 c-109 -21 -203 -95 -259 -203 -35 -68 -37 -75 -37 -171 0
-94 2 -104 34 -165 68 -133 180 -209 322 -218 80 -5 117 3 202 44 l49 23 56
-26 c668 -303 1336 -489 1862 -519 69 -4 133 -10 142 -13 15 -5 -4 -39 -115
-207 -72 -110 -161 -245 -196 -300 -36 -54 -134 -205 -219 -334 -86 -129 -216
-327 -290 -440 -252 -383 -246 -375 -267 -371 -55 10 -212 5 -245 -9 -95 -39
-176 -115 -221 -207 -21 -42 -24 -62 -24 -158 0 -104 2 -113 32 -171 40 -77
125 -155 201 -185 44 -18 77 -23 147 -23 81 0 97 3 157 32 75 37 152 113 189
189 21 42 24 63 24 158 0 118 -15 168 -72 235 l-24 29 77 118 c105 161 293
446 460 698 76 116 141 215 144 220 3 6 26 42 51 80 25 39 117 177 203 308 86
130 158 237 160 237 3 0 972 -1445 1055 -1573 8 -12 22 -34 32 -49 20 -29 25
-58 9 -58 -17 0 -79 -145 -86 -201 -24 -207 142 -408 352 -426 158 -13 303 70
381 219 25 49 28 62 28 163 0 106 -1 112 -34 172 -42 77 -113 146 -189 181
-47 22 -71 27 -142 27 -47 0 -99 -4 -116 -8 l-31 -8 -546 818 c-300 450 -549
825 -552 834 -5 13 17 17 160 27 274 20 618 86 955 183 137 39 460 148 560
188 168 68 216 89 327 139 l121 55 29 -20 c15 -11 55 -30 88 -43 183 -70 390
18 476 202 30 65 34 82 34 158 0 78 -3 91 -37 160 -43 87 -65 114 -137 163
-63 44 -139 61 -242 55 -136 -8 -250 -85 -314 -213 -27 -54 -30 -69 -30 -155
0 -52 4 -111 8 -130 l8 -36 -63 -28 c-35 -16 -70 -31 -78 -34 -8 -2 -43 -18
-78 -33 -35 -16 -67 -29 -71 -29 -5 0 -34 -11 -65 -25 -59 -26 -80 -34 -291
-107 -543 -189 -1070 -289 -1530 -290 -608 0 -1287 161 -1993 475 -63 28 -111
55 -108 61 48 112 46 227 -6 331 -79 160 -246 240 -427 204z m5174 -193 c21
-11 53 -41 70 -64 26 -38 30 -52 30 -110 0 -56 -5 -74 -28 -109 -29 -45 -92
-87 -145 -97 -114 -21 -232 83 -232 204 0 159 163 253 305 176z m-5010 5 c147
-68 168 -264 37 -351 -57 -38 -80 -44 -142 -38 -117 12 -194 118 -176 242 7
44 50 111 84 130 67 38 138 44 197 17z m1087 -2900 c77 -33 118 -94 120 -175
1 -70 -19 -121 -62 -159 -132 -120 -339 -32 -340 146 0 70 17 112 61 153 60
56 143 69 221 35z m2766 4 c105 -44 151 -167 103 -277 -28 -65 -109 -118 -180
-118 -179 0 -271 213 -150 345 58 63 148 82 227 50z"/>
<path d="M297 2883 c-28 -292 37 -721 160 -1063 64 -178 215 -468 317 -608 63
-86 196 -249 255 -312 l61 -65 18 25 c9 14 35 44 56 68 l39 42 -52 58 c-234
261 -383 496 -504 792 -119 293 -184 653 -175 969 l3 129 -60 11 c-33 6 -72
13 -86 17 -26 6 -26 5 -32 -63z"/>
<path d="M5605 2939 c-16 -4 -53 -7 -81 -8 l-51 -1 -6 -227 c-7 -320 -47 -544
-149 -823 -37 -102 -148 -334 -195 -408 -18 -29 -33 -54 -33 -57 0 -2 -21 -34
-47 -70 -27 -37 -55 -77 -63 -89 -14 -21 -89 -115 -100 -126 -3 -3 -38 -42
-78 -87 l-73 -81 37 -49 c20 -26 41 -58 47 -70 6 -13 13 -23 17 -23 4 0 49 44
99 98 372 400 615 905 692 1442 22 149 35 482 22 545 -8 38 -9 40 -38 34z"/>
<path d="M2081 368 c-7 -18 -23 -50 -37 -71 -14 -22 -23 -44 -21 -50 11 -28
353 -123 552 -153 172 -27 630 -27 795 -1 174 29 503 116 528 142 2 2 -14 36
-35 77 -21 40 -38 74 -38 75 0 1 -58 -16 -128 -37 -223 -67 -499 -109 -723
-110 -255 0 -580 55 -822 140 -31 11 -57 20 -58 20 -1 0 -7 -15 -13 -32z"/>
</g>
</svg>
